<mxfile host="app.diagrams.net" modified="2020-11-14T16:57:47.181Z" agent="5.0 (Windows NT 10.0; Win64; x64) AppleWebKit/537.36 (KHTML, like Gecko) Chrome/86.0.4240.193 Safari/537.36 Edg/86.0.622.68" etag="x-CRYvAw0ueS2kJJoUuc" version="13.9.7" type="github">
  <diagram id="ljno_uhm8zrZKMfmhNa0" name="Page-1">
    <mxGraphModel dx="1021" dy="1679" grid="1" gridSize="10" guides="1" tooltips="1" connect="1" arrows="1" fold="1" page="1" pageScale="1" pageWidth="850" pageHeight="1100" math="0" shadow="0">
      <root>
        <mxCell id="0" />
        <mxCell id="1" parent="0" />
        <mxCell id="8tW3LHe0SW-z6sbe-sB6-13" style="edgeStyle=orthogonalEdgeStyle;rounded=0;orthogonalLoop=1;jettySize=auto;html=1;exitX=0.25;exitY=0;exitDx=0;exitDy=0;entryX=0;entryY=0.5;entryDx=0;entryDy=0;" edge="1" parent="1" source="8tW3LHe0SW-z6sbe-sB6-1" target="8tW3LHe0SW-z6sbe-sB6-4">
          <mxGeometry relative="1" as="geometry" />
        </mxCell>
        <mxCell id="8tW3LHe0SW-z6sbe-sB6-14" style="edgeStyle=orthogonalEdgeStyle;rounded=0;orthogonalLoop=1;jettySize=auto;html=1;entryX=0;entryY=0.5;entryDx=0;entryDy=0;" edge="1" parent="1" source="8tW3LHe0SW-z6sbe-sB6-1" target="8tW3LHe0SW-z6sbe-sB6-8">
          <mxGeometry relative="1" as="geometry">
            <Array as="points">
              <mxPoint x="190" y="-40" />
            </Array>
          </mxGeometry>
        </mxCell>
        <mxCell id="8tW3LHe0SW-z6sbe-sB6-15" style="edgeStyle=orthogonalEdgeStyle;rounded=0;orthogonalLoop=1;jettySize=auto;html=1;exitX=0.75;exitY=0;exitDx=0;exitDy=0;entryX=0;entryY=0.5;entryDx=0;entryDy=0;" edge="1" parent="1" source="8tW3LHe0SW-z6sbe-sB6-1" target="8tW3LHe0SW-z6sbe-sB6-9">
          <mxGeometry relative="1" as="geometry" />
        </mxCell>
        <mxCell id="8tW3LHe0SW-z6sbe-sB6-16" style="edgeStyle=orthogonalEdgeStyle;rounded=0;orthogonalLoop=1;jettySize=auto;html=1;entryX=0;entryY=0.5;entryDx=0;entryDy=0;" edge="1" parent="1" source="8tW3LHe0SW-z6sbe-sB6-1" target="8tW3LHe0SW-z6sbe-sB6-10">
          <mxGeometry relative="1" as="geometry" />
        </mxCell>
        <mxCell id="8tW3LHe0SW-z6sbe-sB6-17" style="edgeStyle=orthogonalEdgeStyle;rounded=0;orthogonalLoop=1;jettySize=auto;html=1;exitX=0.75;exitY=1;exitDx=0;exitDy=0;entryX=0;entryY=0.5;entryDx=0;entryDy=0;" edge="1" parent="1" source="8tW3LHe0SW-z6sbe-sB6-1" target="8tW3LHe0SW-z6sbe-sB6-12">
          <mxGeometry relative="1" as="geometry" />
        </mxCell>
        <mxCell id="8tW3LHe0SW-z6sbe-sB6-18" style="edgeStyle=orthogonalEdgeStyle;rounded=0;orthogonalLoop=1;jettySize=auto;html=1;entryX=0;entryY=0.5;entryDx=0;entryDy=0;" edge="1" parent="1" source="8tW3LHe0SW-z6sbe-sB6-1" target="8tW3LHe0SW-z6sbe-sB6-11">
          <mxGeometry relative="1" as="geometry">
            <Array as="points">
              <mxPoint x="190" y="640" />
            </Array>
          </mxGeometry>
        </mxCell>
        <mxCell id="8tW3LHe0SW-z6sbe-sB6-1" value="Administrator" style="html=1;dashed=0;whitespace=wrap;" vertex="1" parent="1">
          <mxGeometry x="110" y="240" width="160" height="80" as="geometry" />
        </mxCell>
        <mxCell id="8tW3LHe0SW-z6sbe-sB6-19" style="edgeStyle=orthogonalEdgeStyle;rounded=0;orthogonalLoop=1;jettySize=auto;html=1;entryX=0;entryY=0.5;entryDx=0;entryDy=0;" edge="1" parent="1" source="8tW3LHe0SW-z6sbe-sB6-4" target="8tW3LHe0SW-z6sbe-sB6-7">
          <mxGeometry relative="1" as="geometry" />
        </mxCell>
        <mxCell id="8tW3LHe0SW-z6sbe-sB6-4" value="Manage Course Catalogue&lt;br&gt;1.0" style="shape=ellipse;html=1;dashed=0;whitespace=wrap;aspect=fixed;perimeter=ellipsePerimeter;whiteSpace=wrap;" vertex="1" parent="1">
          <mxGeometry x="360" y="-240" width="80" height="80" as="geometry" />
        </mxCell>
        <mxCell id="8tW3LHe0SW-z6sbe-sB6-27" style="edgeStyle=orthogonalEdgeStyle;rounded=0;orthogonalLoop=1;jettySize=auto;html=1;exitX=0;exitY=0.25;exitDx=0;exitDy=0;entryX=1;entryY=0.5;entryDx=0;entryDy=0;" edge="1" parent="1" source="8tW3LHe0SW-z6sbe-sB6-5" target="8tW3LHe0SW-z6sbe-sB6-8">
          <mxGeometry relative="1" as="geometry">
            <Array as="points">
              <mxPoint x="710" y="-47" />
              <mxPoint x="710" y="-40" />
            </Array>
          </mxGeometry>
        </mxCell>
        <mxCell id="8tW3LHe0SW-z6sbe-sB6-30" style="edgeStyle=orthogonalEdgeStyle;rounded=0;orthogonalLoop=1;jettySize=auto;html=1;exitX=0.5;exitY=1;exitDx=0;exitDy=0;entryX=1;entryY=0.5;entryDx=0;entryDy=0;" edge="1" parent="1" source="8tW3LHe0SW-z6sbe-sB6-5" target="8tW3LHe0SW-z6sbe-sB6-9">
          <mxGeometry relative="1" as="geometry" />
        </mxCell>
        <mxCell id="8tW3LHe0SW-z6sbe-sB6-5" value="Faculty DB" style="html=1;dashed=0;whitespace=wrap;shape=partialRectangle;right=0;left=0;" vertex="1" parent="1">
          <mxGeometry x="700" y="-55" width="100" height="30" as="geometry" />
        </mxCell>
        <mxCell id="8tW3LHe0SW-z6sbe-sB6-33" style="edgeStyle=orthogonalEdgeStyle;rounded=0;orthogonalLoop=1;jettySize=auto;html=1;entryX=1;entryY=0.5;entryDx=0;entryDy=0;" edge="1" parent="1" source="8tW3LHe0SW-z6sbe-sB6-6" target="8tW3LHe0SW-z6sbe-sB6-12">
          <mxGeometry relative="1" as="geometry">
            <Array as="points">
              <mxPoint x="670" y="480" />
            </Array>
          </mxGeometry>
        </mxCell>
        <mxCell id="8tW3LHe0SW-z6sbe-sB6-6" value="Student DB" style="html=1;dashed=0;whitespace=wrap;shape=partialRectangle;right=0;left=0;" vertex="1" parent="1">
          <mxGeometry x="620" y="265" width="100" height="30" as="geometry" />
        </mxCell>
        <mxCell id="8tW3LHe0SW-z6sbe-sB6-20" style="edgeStyle=orthogonalEdgeStyle;rounded=0;orthogonalLoop=1;jettySize=auto;html=1;entryX=1;entryY=0.5;entryDx=0;entryDy=0;" edge="1" parent="1" source="8tW3LHe0SW-z6sbe-sB6-7" target="8tW3LHe0SW-z6sbe-sB6-4">
          <mxGeometry relative="1" as="geometry" />
        </mxCell>
        <mxCell id="8tW3LHe0SW-z6sbe-sB6-7" value="Course Catalogue" style="html=1;dashed=0;whitespace=wrap;shape=partialRectangle;right=0;left=0;" vertex="1" parent="1">
          <mxGeometry x="710" y="-215" width="100" height="30" as="geometry" />
        </mxCell>
        <mxCell id="8tW3LHe0SW-z6sbe-sB6-26" style="edgeStyle=orthogonalEdgeStyle;rounded=0;orthogonalLoop=1;jettySize=auto;html=1;entryX=0;entryY=0.5;entryDx=0;entryDy=0;" edge="1" parent="1" source="8tW3LHe0SW-z6sbe-sB6-8" target="8tW3LHe0SW-z6sbe-sB6-5">
          <mxGeometry relative="1" as="geometry" />
        </mxCell>
        <mxCell id="8tW3LHe0SW-z6sbe-sB6-8" value="Manage Faculty&lt;br&gt;2.0" style="shape=ellipse;html=1;dashed=0;whitespace=wrap;aspect=fixed;perimeter=ellipsePerimeter;whiteSpace=wrap;" vertex="1" parent="1">
          <mxGeometry x="360" y="-80" width="80" height="80" as="geometry" />
        </mxCell>
        <mxCell id="8tW3LHe0SW-z6sbe-sB6-28" style="edgeStyle=orthogonalEdgeStyle;rounded=0;orthogonalLoop=1;jettySize=auto;html=1;entryX=0.5;entryY=1;entryDx=0;entryDy=0;" edge="1" parent="1" source="8tW3LHe0SW-z6sbe-sB6-9" target="8tW3LHe0SW-z6sbe-sB6-5">
          <mxGeometry relative="1" as="geometry" />
        </mxCell>
        <mxCell id="8tW3LHe0SW-z6sbe-sB6-9" value="Manage Faculty Payroll&lt;br&gt;3.0" style="shape=ellipse;html=1;dashed=0;whitespace=wrap;aspect=fixed;perimeter=ellipsePerimeter;whiteSpace=wrap;" vertex="1" parent="1">
          <mxGeometry x="360" y="80" width="80" height="80" as="geometry" />
        </mxCell>
        <mxCell id="8tW3LHe0SW-z6sbe-sB6-31" style="edgeStyle=orthogonalEdgeStyle;rounded=0;orthogonalLoop=1;jettySize=auto;html=1;entryX=0;entryY=0.5;entryDx=0;entryDy=0;" edge="1" parent="1" source="8tW3LHe0SW-z6sbe-sB6-10" target="8tW3LHe0SW-z6sbe-sB6-6">
          <mxGeometry relative="1" as="geometry" />
        </mxCell>
        <mxCell id="8tW3LHe0SW-z6sbe-sB6-10" value="Manage Student Payments&lt;br&gt;4.0" style="shape=ellipse;html=1;dashed=0;whitespace=wrap;aspect=fixed;perimeter=ellipsePerimeter;whiteSpace=wrap;" vertex="1" parent="1">
          <mxGeometry x="360" y="240" width="80" height="80" as="geometry" />
        </mxCell>
        <mxCell id="8tW3LHe0SW-z6sbe-sB6-34" style="edgeStyle=orthogonalEdgeStyle;rounded=0;orthogonalLoop=1;jettySize=auto;html=1;entryX=0.853;entryY=1.028;entryDx=0;entryDy=0;entryPerimeter=0;" edge="1" parent="1" source="8tW3LHe0SW-z6sbe-sB6-11" target="8tW3LHe0SW-z6sbe-sB6-5">
          <mxGeometry relative="1" as="geometry">
            <mxPoint x="785" y="10" as="targetPoint" />
            <Array as="points">
              <mxPoint x="400" y="800" />
              <mxPoint x="785" y="800" />
            </Array>
          </mxGeometry>
        </mxCell>
        <mxCell id="8tW3LHe0SW-z6sbe-sB6-35" style="edgeStyle=orthogonalEdgeStyle;rounded=0;orthogonalLoop=1;jettySize=auto;html=1;entryX=0.902;entryY=1.015;entryDx=0;entryDy=0;entryPerimeter=0;" edge="1" parent="1" source="8tW3LHe0SW-z6sbe-sB6-11" target="8tW3LHe0SW-z6sbe-sB6-6">
          <mxGeometry relative="1" as="geometry">
            <Array as="points">
              <mxPoint x="710" y="640" />
            </Array>
          </mxGeometry>
        </mxCell>
        <mxCell id="8tW3LHe0SW-z6sbe-sB6-11" value="&lt;span&gt;Verify Documents&lt;br&gt;6.0&lt;br&gt;&lt;/span&gt;" style="shape=ellipse;html=1;dashed=0;whitespace=wrap;aspect=fixed;perimeter=ellipsePerimeter;whiteSpace=wrap;" vertex="1" parent="1">
          <mxGeometry x="360" y="600" width="80" height="80" as="geometry" />
        </mxCell>
        <mxCell id="8tW3LHe0SW-z6sbe-sB6-32" style="edgeStyle=orthogonalEdgeStyle;rounded=0;orthogonalLoop=1;jettySize=auto;html=1;exitX=1;exitY=0.5;exitDx=0;exitDy=0;entryX=0.5;entryY=1;entryDx=0;entryDy=0;" edge="1" parent="1" source="8tW3LHe0SW-z6sbe-sB6-12" target="8tW3LHe0SW-z6sbe-sB6-6">
          <mxGeometry relative="1" as="geometry" />
        </mxCell>
        <mxCell id="8tW3LHe0SW-z6sbe-sB6-12" value="&lt;span&gt;Manage Student&lt;br&gt;5.0&lt;br&gt;&lt;/span&gt;" style="shape=ellipse;html=1;dashed=0;whitespace=wrap;aspect=fixed;perimeter=ellipsePerimeter;whiteSpace=wrap;" vertex="1" parent="1">
          <mxGeometry x="360" y="440" width="80" height="80" as="geometry" />
        </mxCell>
      </root>
    </mxGraphModel>
  </diagram>
</mxfile>
